<svg xmlns="http://www.w3.org/2000/svg" viewBox="0 0 320.5 184.98">
  <path d="M187.94,91.42c-1.03-7.52-1.64-15.17-3.48-22.54-2.72-10.89-7.1-21.38-13.29-30.76-11.63-17.62-29.54-30.36-50.05-35.45C98.44-2.94,74.22,.43,53.66,11.38,32.57,22.61,14.96,40.6,6.18,62.99c-8.57,21.84-8.23,46.68,1.07,68.24,8.98,20.8,25.95,37.56,46.73,46.53,24.06,10.38,51.7,9.18,75.33-1.8,6.61-3.07,12.89-6.87,18.74-11.21,.88-.65,5.31-3.66,4.25-5.18-1.02-1.46-5.66,1.73-6.32,2.22-21.35,15.87-50.12,19.09-75.13,10.8-3.45-1.14-6.82-2.51-10.08-4.07,19.69,7.6,41.79,6.89,61.46-1.52,6.7-2.86,13.04-6.58,18.9-10.89,.88-.65,5.31-3.66,4.25-5.18-1.02-1.46-5.66,1.73-6.32,2.22-20.81,15.3-49.56,16.42-72.69,5.8-.59-.27-1.18-.55-1.76-.84,16.26,6.31,34.71,6.23,51.27-.45,6.86-2.76,13.33-6.44,19.25-10.88,.87-.66,5.31-3.66,4.25-5.18-1.02-1.45-5.66,1.73-6.32,2.22-18.4,13.81-44.19,14.19-64.35,3.95,13.72,5.29,29.4,5.24,43.52-.57,6.95-2.86,13.34-6.82,19.18-11.54,.84-.68,4.18-3.36,2.42-4.4-1.64-.97-6.22,2.7-7.22,3.52-14.42,11.66-34.84,11.46-51.27,3.76,18.51,6.06,34.75-2.36,34.75-2.36,6.82-3.06,13.03-7.48,18.4-12.67,.96-.93,3.08-3.39,.48-3.35-2.55,.04-5.53,2.71-7.6,4.53,0,0-12.29,12.48-34.86,6.41-11.06-2.97-20.4-10.72-25.99-20.7-10.15-18.12-6.21-48.09,15.31-55.88,9.9-3.58,21.65-2.98,31.45,.72,9.01,3.4,16,10.23,20.16,18.86,.22,.46,.42,.92,.62,1.38,3.97,9.13,4.31,18.9,5.66,28.6,.02,.12,.03,.23,.05,.35,.08,.56,.17,1.13,.25,1.69,.03,.17,.05,.34,.08,.51,.12,.72,.24,1.45,.38,2.17,2.16,11.57,6.22,22.81,12.21,32.96,11.08,18.78,28.79,33.23,49.74,39.53,22.77,6.85,47.87,3.92,68.92-6.91,21.34-10.98,39.45-28.85,48.54-51.28,8.86-21.87,8.87-46.78-.29-68.58-8.83-21.02-25.8-38.01-46.67-47.14-24.17-10.57-51.99-9.4-75.77,1.65-6.61,3.07-12.91,6.89-18.75,11.24-.88,.65-5.31,3.66-4.25,5.18,1.02,1.46,5.66-1.73,6.32-2.22,21.37-15.91,50.14-19.13,75.19-10.85,3.51,1.16,6.92,2.55,10.23,4.14-19.74-7.67-41.9-6.99-61.66,1.47-6.7,2.87-13.05,6.6-18.92,10.92-.88,.65-5.31,3.66-4.25,5.18,1.02,1.46,5.66-1.73,6.32-2.22,21.06-15.52,50.23-16.51,73.53-5.49,.32,.15,.63,.31,.95,.47-16.26-6.3-34.72-6.2-51.28,.48-6.87,2.77-13.35,6.46-19.27,10.92-.87,.66-5.31,3.66-4.25,5.18,1.02,1.45,5.66-1.73,6.32-2.22,18.4-13.86,44.23-14.27,64.42-4.01-13.73-5.29-29.41-5.23-43.54,.59-6.96,2.87-13.36,6.83-19.2,11.56-.84,.68-4.19,3.36-2.42,4.4,1.64,.96,6.22-2.7,7.22-3.52,14.42-11.68,34.88-11.51,51.32-3.8-11.41-3.69-23.84-2.44-34.76,2.45-6.82,3.06-13.03,7.48-18.4,12.67-.96,.93-3.08,3.39-.48,3.35,2.55-.04,5.9-2.89,7.6-4.53,8.77-8.47,22.68-9.72,34.04-6.72,11.08,2.93,20.62,10.31,26.4,20.19,10.47,17.88,7.13,47.94-14.09,56.32-10.48,4.14-22.87,3.28-32.96-1.6,0,0-20.6-8.07-24.58-37.15h-.02ZM70.47,52.74c-10.69,6.71-19.56,16.24-23.78,28.28-1.51,4.32-2.31,8.88-2.44,13.45-1.08-10.58,.88-21.47,6.21-31.13,4.87-8.83,11.97-15.74,21.44-19.19,10.41-3.79,22.06-3.87,32.75-1.2,3.14,.78,6.09,1.84,8.86,3.14-14.22-4.12-30.72-1.09-43.04,6.65Zm31.46-19.47c-24.35-1.11-48.77,12.84-61.01,33.86-5.26,9.02-7.78,19.25-7.64,29.4-.45-3.86-.56-7.79-.3-11.73,1.41-21.24,13.56-42.59,33.81-50.55,16.67-6.56,36.85-5.49,53.02,2.65-5.59-2.11-11.61-3.34-17.87-3.63h-.01ZM22.74,86.29c-.49,3.47-.7,6.95-.64,10.42-1.88-19.52,3.81-39.7,16.34-54.93,14.16-17.23,36.23-24.35,58.2-22.45,8.41,.73,16.53,2.79,24.06,6.09C78.92,11.79,28.97,42.21,22.74,86.29ZM92.47,11.28c-24.18,1.67-47.32,14.81-62.69,33.31-12.3,14.8-18.95,33.47-18.69,52.49-1.12-12.51,.4-25.25,4.62-37.21,7.09-20.11,21.91-37.47,41.67-45.69,21.09-8.78,46.04-8.21,66.99,.73,.88,.38,1.75,.77,2.61,1.18-10.91-4.04-22.76-5.62-34.51-4.8h0Zm124.15,129.13c12.41,1.4,24.48-2.34,34.83-9.12,10.18-6.67,18.53-16.13,22.48-27.76,1.42-4.2,2.19-8.6,2.31-13.02,1.05,10.3-.77,20.89-5.81,30.36-4.72,8.87-11.69,16.01-21.04,19.64-10.74,4.16-22.93,4.33-33.92,1.03-2.84-.85-5.54-1.95-8.1-3.24,2.99,1.04,6.09,1.76,9.26,2.12h0Zm2.54,11.28c24.2,1.08,48.64-13.33,60.61-34.24,5.11-8.92,7.57-18.98,7.43-28.98,.45,3.85,.56,7.75,.3,11.68-1.41,21.24-13.56,42.59-33.81,50.55-16.32,6.42-35.05,5.32-50.68-2.28,5.07,1.89,10.5,3.02,16.15,3.28h0Zm78.57-53.04c.49-3.49,.7-6.99,.64-10.47,1.93,19.83-3.99,40.3-16.88,55.64-14.31,17.03-36.89,24.06-58.79,21.66-8-.88-15.67-3.06-22.78-6.35,41.42,14.53,91.61-16.63,97.8-60.47h.01Zm6.74,27.22c-7.39,20.33-22.71,37.69-42.97,45.52-21.71,8.38-46.78,7.29-67.73-2.82-.24-.12-.48-.24-.72-.36,10.52,4.23,22,6.12,33.6,5.52,24.42-1.26,47.8-14.26,63.49-32.74,12.58-14.81,19.47-33.72,19.24-52.96,1.11,12.74-.51,25.71-4.92,37.84h.01Z"/>
</svg>